<svg xmlns="http://www.w3.org/2000/svg" viewBox="0 0 200.42 46.87"><title>자산 3</title><g id="레이어_2" data-name="레이어 2"><g id="레이어_1-2" data-name="레이어 1"><path d="M17.82,8.92c.47-.06,1.16.21,1.74-.16.37.1.73.16.89.68.21.9.64,1.43.48,2.32l.1,1.59s-.31,1.84-.31,2.11l-2.17,4.37a15.28,15.28,0,0,0-1.05,2.32l-1.95,3.33v.63a14.12,14.12,0,0,1-1.64,2.22c-.26.26-2.16,1.9-2.16,1.9a6.7,6.7,0,0,1-1.42.95,3.37,3.37,0,0,1-1,2.11A5,5,0,0,1,6.74,35c-1.06,0-.74.53-.9.79-.53.22-.79,1-1.53,1.16a13.34,13.34,0,0,1-2.11,0A2.88,2.88,0,0,1,0,35.5c-.21-.58.47-1.27,1.42-2L4,31.6l3-2.27a5.53,5.53,0,0,0,1.16-1.95l.74-.9a4.17,4.17,0,0,0,1.69-1.27l1.16-1.89c0-.48.95-1.64.95-1.64l.21-.95.74-1,.9-1.43,1.21-2.42.68-1.16c0-.48.06-1.48.06-1.48l-1.27,0c-.47-.26-.9.42-.9.42l-2.05-.1a7.27,7.27,0,0,1-2.17,0A8.59,8.59,0,0,0,8.48,14L8,14.24l-2,.21a2.51,2.51,0,0,1-3,0H2.2a3.27,3.27,0,0,1-1.95-.74,2.45,2.45,0,0,0,0-1.37,3.12,3.12,0,0,1,1-2.26L2.41,9.6l2.85-.21a1.74,1.74,0,0,0,1.21,0c.48-.21,3.12.26,3.38,0a6.9,6.9,0,0,1,2.11,0l.95-.74,1,.32L15,8.55h1ZM24,3.75A2.28,2.28,0,0,1,26,3.22a7.2,7.2,0,0,1,1.69.89,3.55,3.55,0,0,1,.42,2.17,10.49,10.49,0,0,1,.53,2,4.28,4.28,0,0,1,.69,2.16A3.07,3.07,0,0,0,29,11.82a3.25,3.25,0,0,0,.63,1.42v6.22l1.16-.26H34l2.32-.26.26-.42V15.19c0-1.79-.74-2.37-.74-3.85V9.71L34.64,6.8c-.47-.26-.47-3.11-.47-3.11a3.2,3.2,0,0,1,1.9-2.11c1.53-.31,2.48.53,3.32,1.64A11.11,11.11,0,0,1,40.6,5.8c-.26.48,0,1.48,0,1.74-.26.21,0,1.16,0,1.16l-.05.74v1l.47.95-.42,2.59v4.32a8.18,8.18,0,0,1-.68,2.59,3.64,3.64,0,0,0,.63,2.42v7.49s-.47,4.49-.69,5.7c-.26.95-.52,2.11-.52,2.11V41a13.46,13.46,0,0,1-1.16,2.84,3.13,3.13,0,0,1-1.85,1.11c-.79.16-1.32-1.16-1.27-3,0-.21.27-1.69.27-1.69A2.63,2.63,0,0,0,35.86,39a8.13,8.13,0,0,1-.27-2.16s.21-4.75.69-5.64a8.54,8.54,0,0,0,0-2.64c0-.26-.21-5.06-.42-5.06a8.71,8.71,0,0,1-1.22-.27s-2.37.27-2.63.27-2.38-.27-2.38-.27v4.06a17.34,17.34,0,0,1,0,3.38v3.53a4.76,4.76,0,0,1-.74,1.9,4.12,4.12,0,0,1-1.69.69,3.54,3.54,0,0,1-.89-.42s-1-2.9-1.22-3.38A13.27,13.27,0,0,1,25,30.17l.27-2.37L25,21.57V12.71l-.68-2.32a5.3,5.3,0,0,0,.15-2.58c-.21-.64-.89-2-.89-2.22A2.6,2.6,0,0,1,24,3.75Z"/><path d="M82.06,10.44c1.26.16.84.32,1.69.69s.37,1.06.63,1.79.16.53.16,2.27.26,4.17.26,4.17,2.9-.21,3.59-.69,3.58.11,3.58.11,1.22,0,2.12,0,1.89,0,3.48,0,1.69-.63,2.48-.74a17.65,17.65,0,0,1,2.32,0c.42,0,1.68-1.37,2.58-1.42s1.37.31,2,1.84.21,2.53-.64,4.17-2,.95-5.54.95-8.33-.42-8.33-.42a22.46,22.46,0,0,1-5.27.47c-1.48-.26-7.07,1-7.28,1a37,37,0,0,1-5.44.85c-2,0-2.85.47-4.75.47s-2.9.58-4.32.58-1.85-.84-3-1.74.16-2.48,1.06-3.16,2.69,0,3.53-.32,1.9.16,2.53,0,3-.32,3.85-.53,6-.1,6.49-.37-.1-.95,0-1.21a28.76,28.76,0,0,0-.21-4.59,11,11,0,0,1-.26-2.74,2.27,2.27,0,0,1,.47-1.43C80.74,9.92,80.74,10.23,82.06,10.44Zm7.38,17.62H92l1.75.37.37-.37h2.42c1.37.27,2.59.48,3,1.22a2.89,2.89,0,0,1,.37,1.26c0,.79.89.95,1.21,1.22a1.26,1.26,0,0,1,.42,1.21,3.29,3.29,0,0,1-.42,1.63v5.28a.73.73,0,0,0,0,.84l-.74,1.11-.47,1.27-.37,1.32-.48.42-.74,1.21-.89.42H95.3c-.63-.21-.63-.89-.42-1.63V40.72l.73-1.32v-.73a17.82,17.82,0,0,0,.48-2.17,3.58,3.58,0,0,0-.11-.79c0-.58.27-2,0-2.64-.21-.47-.16-.79-.63-.89s-1.06.16-1.58,0a5.54,5.54,0,0,0-2.11,0h-.9L89.44,33l-1.9.42h-1L85,33.92l-1.21.31-1,.37H80.48l-1.69.48H77.15l-.89.37H73a8.11,8.11,0,0,1-2.48-.37c-.43-.37-1.06-.63-1.27-1.16a2.53,2.53,0,0,1,0-2.53A3.83,3.83,0,0,1,71.35,30c.58-.05,1,.85,1.64.85h2.42a8.84,8.84,0,0,0,2-.53,7.38,7.38,0,0,1,1.8-.21,10.65,10.65,0,0,1,2.27,0,8.28,8.28,0,0,0,1.84-.32A5.4,5.4,0,0,0,85,29.28l1.58-.48ZM90.92,5.22c-1.27.11-2.74.16-3.06.48a5.79,5.79,0,0,1-2.8.68c-1,.06-1.52-.16-3.63,0s-1.17-.16-3.49,0-3.9-.1-4.27.06-.9.63-2.21-.32a5.85,5.85,0,0,1-2.33-2.8A1.16,1.16,0,0,1,70.3,1.9a6.49,6.49,0,0,1,3.16,0,10,10,0,0,0,3.85.42c2.59-.1,5.8-.68,6-.63S88.34,1,89.65,1h3.54c1.63,0,1.37-.9,3.27,0s3.27,1.27,3.27,2.69a20.66,20.66,0,0,1,0,2.64c0,2,.26,5.17,0,5.91s-.84,1-1,1.42.37.74-.58,1.37-1.74.53-2.22,0a3,3,0,0,1-.84-2.11,9.67,9.67,0,0,0-.42-2.69c-.16-.9-.43-3.85-.43-4.38s-1.63.32-2-.1C92.19,5.7,92.19,5.22,90.92,5.22Z"/><path d="M132.53,21.57c.9.27,1.16.85,1.8,1.32s.26.9.37,2.17a4.65,4.65,0,0,0,.26,1.68v1.74a12.87,12.87,0,0,0-.21,1.43c0,.79-.16.79-.16,1.79,0,.74.58,1.8.32,2.22-.48.47.31,1.42.31,1.42s1.11.06,1.48.06,2.53.21,2.53.21h2.11l2.22-.69c.42-.16.84.32,1.53.32h3.48c.74,0,2.48-.16,2.48-.16a3,3,0,0,1,1.27.26c.31.27,1.05.37,2.11.95l.47,1.22c.42,1.31.11,1.79-.53,2.16l-1.32.74h-2.69a7.48,7.48,0,0,1-1.89-.32h-1.32l-1.8-.16h-6.22s-1.11.16-1.43.16a2.17,2.17,0,0,0-1.1.21,15.64,15.64,0,0,1-2.27,0h-2.74l-1.11.16-2,.16-1.37.31a5.6,5.6,0,0,1-1.9.16,16.71,16.71,0,0,0-3.37.64l-2.22.15a12.94,12.94,0,0,1-2.27,0h-1.47a5.6,5.6,0,0,1-2.43-.68c-.9-.58-2.69-.58-2.69-1.11a3.66,3.66,0,0,1,0-2.9c.42-.95.79-.21,1.48-.21.36,0,3.64.53,3.85.21h1.79c1.06-.32,2.22.05,3.27-.21a12.23,12.23,0,0,1,1.37-.11l4.17-.74h1.53s2.48-.05,2.11-1.21V32.6l-.42-3.69s.37-.27,0-2.53c-.11-1.43,0-1.53,0-1.48s0,0,0-.16a2.11,2.11,0,0,1-.43-2.27A3.09,3.09,0,0,1,132.53,21.57Zm2.54-16.72c.42,0,.68.64,1.1,1.22a8.66,8.66,0,0,0,.74,1,5.83,5.83,0,0,1,.37,1.32l-.16,1.21a8,8,0,0,0-.79,1.11c-1.58,1.53-2.69,2.69-1.48,3.11L138,14.93l3.32,1.69a15,15,0,0,1,2,.68l.79.53a10.18,10.18,0,0,0,1.85.53c.36,0,.84,1.05.84,1.05a6.15,6.15,0,0,1,1.32,1c.26.48.74.53,1.42,1.11.79.9,1,1,.9,1.43a4.08,4.08,0,0,0,0,1.16c0,.37-.69.68-1.16,1.32-1,.47-2.38.15-4-.53l-1-.63a4,4,0,0,0-2.21-1,5.55,5.55,0,0,1-1.54-.89,8.19,8.19,0,0,0-1.68-1.64,35.43,35.43,0,0,0-3.27-1.53c-1.53-.9-2.8-.9-4.54-1.48l-2.27,1.64-1.11.68a6.86,6.86,0,0,0-.84.8l-.69.73c-1.26,1.06-4.11,2.59-6.17,4.54l-.31.37a6.12,6.12,0,0,1-3.33,1.16,6.77,6.77,0,0,1-2-.53A5.29,5.29,0,0,1,113.33,25c-.26-.89.74-1.74,1.27-2.16s1.05-.26,1.53-.42a11.69,11.69,0,0,0,1.16-1l2.37-2c1.11-1.05,2.59-1.42,3.33-1.95,2.27-1.63,2.11-1.79,3.37-2.58a8.21,8.21,0,0,0,1.32-.85c.95-.53,1.32-1.74,2.16-2.69a1.66,1.66,0,0,1,.43-.79,5.64,5.64,0,0,0,1.16-1,2.44,2.44,0,0,0,0-1.11V7.07A3.8,3.8,0,0,1,132,5.64l1.32-.79Z"/><path d="M169.24,7.33a9,9,0,0,1,1.27-.42c.53,0,1.27.21,2.21.21A2.11,2.11,0,0,0,174,6.91h1.21a4.41,4.41,0,0,1,1.59.26c.37,0,1.63,0,1.84-.26.21,0,2.69-.58,3.06-.63,0,0,.27-.06,1.48-.42l1.37.36c.58.48.58.22.58.48-.16.42,1.32,1,1.32,1.69.21.89,0,0,0,.63a6.8,6.8,0,0,0,.21,1.48s.63.63.48.95v.79a1.89,1.89,0,0,0,0,1.26,3.3,3.3,0,0,1,.31,1.69,7.75,7.75,0,0,1-.31,1.9c.58.69.15,1.37.42,1.53.31.9.1,2.64-1.11,2.9h-3.8a8.28,8.28,0,0,1-2,.37c-1.32,0-.74-.21-1.9.16a6.59,6.59,0,0,1-2.75.47c-.16,0-1.9.22-1.9.22h-4.22c-1,0-1.31.36-1.31.36a3.57,3.57,0,0,1,.15.9c0,.27-.31.95-.31,1.16s-.27,1.27-.27,1.43.32.84.11,1.1V28.8s.32,1.27.47,1.27a5.74,5.74,0,0,0,1.64.47c.74-.21,1.26-.47,1.48-.47s1.58.42,2.21.42a15.77,15.77,0,0,1,2.53-.63c.69-.21,2.59-.21,3.49-.43a11.7,11.7,0,0,1,2.37-.26s.37,0,2-.16a2.64,2.64,0,0,1,1.27,0,9.56,9.56,0,0,0,1.26.16,22.15,22.15,0,0,1,2.06,1.06,1.64,1.64,0,0,1,.32,2l-.69.84-.42.22a1.44,1.44,0,0,1-.85.42c-.15,0-2.16.21-2.95.21,0,0-2,.21-2.11.21-.47,0-.69.21-2,.74a18.11,18.11,0,0,1-2.33,0h-5.17A3.43,3.43,0,0,0,171,35.92c-.53.32-1.59-.21-2-.21a1.33,1.33,0,0,1-1.47-.21,14,14,0,0,1-1.69-.21,6,6,0,0,0-1.11-.95,7.53,7.53,0,0,1-.69-.79V32s.27-6.65-.1-7.39a3.35,3.35,0,0,0-.95-.79,1.83,1.83,0,0,0-.9-.79,2.19,2.19,0,0,1-.74-1l-.1-.58a2.14,2.14,0,0,1,.74-2.11l.63-.43h3.43c.42.22.58,0,.58,0s.9.22,1.05,0c.32-.26.48-.26.48-.26h1.26c1.38.26,1.06,0,1.06,0h2.58l1.27-.37,6.28-.53a1.63,1.63,0,0,0,.89-.47h.69V16c0-1.47.26-2,.16-4.38a4.14,4.14,0,0,0,.21-1.1,9.69,9.69,0,0,1-1.69.42,2.3,2.3,0,0,0-1,.16l-2.58.21s-4.33.21-5.38.21c-1.27,0-1-.05-2.32.58l-.64.16a10.35,10.35,0,0,1-2.95-.42,2.67,2.67,0,0,0-1.69-.48l-.69-.42a5.17,5.17,0,0,1-1.58-1c-.31-.64-.58-1.11-.74-1.53-.26-.69.16-.69.64-1.48a1.06,1.06,0,0,1,1.68-.47c.27.26,1.27,0,1.48,0s.69.68.69.68L167,7.7ZM195.09,0l2.16.42L198.52,2l.63,1.11a2,2,0,0,1,.48,1.16,13.49,13.49,0,0,0,0,2.11,2.05,2.05,0,0,0,0,1.53v6.8l.31,1.27c0,.95.27,1.32.27,2a1.76,1.76,0,0,0-.27,1.26,1.64,1.64,0,0,1-.31.79l.58,1.32.21,5.59-.69,1.48v1.05a8.19,8.19,0,0,0,.43,1.53c.21.64-.22.8,0,1.27.21.69-.43.63-.43,1.85a14.86,14.86,0,0,0,.21,3.27,6.78,6.78,0,0,1,0,2.11,4.63,4.63,0,0,1,0,1.74v1c0,.48-.21.48-.58,1.37-.68.53-.26.37-.68,1.06a1,1,0,0,1-.9.63c-.16,0-1.16.21-1.37,0a3.07,3.07,0,0,1-1-.42,2.35,2.35,0,0,1-.69-.9,3.25,3.25,0,0,1-.42-1.74c0-.37.63-1.21.63-1.63a6.32,6.32,0,0,0,0-1.74,37.1,37.1,0,0,1-.47-4.22,6.47,6.47,0,0,1-.16-1.11v-.63a6.69,6.69,0,0,1,.42-1.74c.21-.64.74-1.11,1.06-2s-.37-1.26-.37-1.9-.21-2.74-.21-2.74a4.84,4.84,0,0,1,.21-1.95c.21-.69,0-.79,0-1.32v-.79L195.09,17a2.69,2.69,0,0,0,0-1.69,5.23,5.23,0,0,1-.16-2.32c.48-.26.16-.95,0-1.79V8.65a12.47,12.47,0,0,0-.47-2.21V5l-1-.68a3.37,3.37,0,0,0-1.06-1.06c-.84-.37-.42-1,0-1.74a1,1,0,0,0,0-.9L194,0Z"/><path d="M52.48,11c-.37,0-.3,0-.77,0a.76.76,0,0,1-.65.14.8.8,0,0,0-.29,0,5.1,5.1,0,0,1-.7,0c-.52-.1-.53,0-1.09.11s-.58,0-.52.13.12.29,0,.37c-.21.27-.19.33-.35.43-.42.21-.45.16-.77,0s-.15-.16-.15-.44a2.2,2.2,0,0,1,0-.63,2.33,2.33,0,0,0-.06-.53.57.57,0,0,0,.06-.35A1.81,1.81,0,0,1,47,9.14c.08-.37-.07-.35,0-.51s-.15-.36-.08-.55.16-.57.12-.75a3.84,3.84,0,0,1,0-.74V6.05a3.13,3.13,0,0,1,0-.42c0-.17-.27-.38-.37-.67a6.52,6.52,0,0,1,0-.78.88.88,0,0,1,.19-.61c.21-.18.35-.1.45-.23s.38,0,.45.08l.93.16,1.17,0h.6c.39,0,.42,0,.39,0a.51.51,0,0,0,.24,0,3.15,3.15,0,0,0,1.09-.19l.25,0,.18,0a.6.6,0,0,1,.64,0,.86.86,0,0,0,.33,0,1.5,1.5,0,0,1,.4.19v1s-.06.44-.06.52-.06.32-.09.6v.57a3.45,3.45,0,0,1,0,.67c-.08.21,0,.24-.11.48s0,.36,0,.47l.1,1.09c0,.25.05.14.05.25,0,.39.11.42.2.92a.77.77,0,0,1-.7,1C53.06,11,52.77,11,52.48,11ZM52,4.75s-.24-.08-.25,0a1.75,1.75,0,0,0-.37.12C51.27,5,51.06,5,51,5s-.53-.08-.53-.08h-.16l-.2.11h-.68L49,5c-.53,0-.54,0-.62.13a.92.92,0,0,1,0,.3c-.08.1,0,.5,0,.5v.48s-.19.11,0,.3a2,2,0,0,1,.16.8V8a6.2,6.2,0,0,0,.13,1V9.6l.14.23a6.22,6.22,0,0,1,1-.07,2.3,2.3,0,0,0,1,0c.14,0,.67,0,.81,0l.21-.2c.26,0,.3-.48.22-1.2.08-.25.12-.17,0-.3a1.5,1.5,0,0,1,.08-.39V7.27s-.08-.45-.08-.58V5.15ZM56.4,1.07l.24.19a4.19,4.19,0,0,0,.36.23c.12,0,.11,0,.24.14s.24.19.28.27a1.17,1.17,0,0,0,.13.28.69.69,0,0,0,.15.4,1.48,1.48,0,0,1,.11.78c0,.27-.11.27-.11.27a4.56,4.56,0,0,0-.1.47c0,.14,0,.14.13.41s.19.16.14.34,0,.45,0,.45a1.92,1.92,0,0,1,0,.8,2.74,2.74,0,0,1-.2.8l.15.69a1,1,0,0,1,0,.54,2.74,2.74,0,0,0,0,.64c0,.35,0,.29,0,.47a1.67,1.67,0,0,1,0,.86,13.59,13.59,0,0,0,0,1.49c0,.16,0,.4,0,.53s0,.43,0,.43.08.53,0,.62-.11.29-.13.6a.64.64,0,0,1-.37.59,2.27,2.27,0,0,1-.8,0c-.3-.18-.27-.23-.27-.39v-.65a2.12,2.12,0,0,1,.16-.6c0-.17,0-.17.11-.33s0-.26,0-.26-.08-.8-.13-1.52a2.55,2.55,0,0,1,.07-1.2,1,1,0,0,0,0-.62,1.82,1.82,0,0,0,0-.77V7.44a2.23,2.23,0,0,0,0-.59.64.64,0,0,0,0-.42,3.14,3.14,0,0,0,0-.41.94.94,0,0,0,0-.4V4.79a2,2,0,0,0,0-.55,4.14,4.14,0,0,1,0-.61c0-.25-.16-.27-.16-.27V3.22A1.19,1.19,0,0,0,56,2.69l-.08-.1s0,.05,0,0-.37-.4-.4-.52a1.26,1.26,0,0,1,0-.46c0-.34.17-.4.43-.53Z"/><path d="M50.05,23.42l.45-.13s.53,0,.61-.05.67-.19.67-.19l.59.08.47-.15s.35,0,.76,0l.8,0,.56-.11c.37-.07.29.08.61-.07s.69,0,.93,0,.59-.15.7-.15a7.25,7.25,0,0,1,.74.15l.34.17.36.18v.4a2.72,2.72,0,0,1-.17.46l-.22.12c-.07.06-.08.08-.1.08s0,0-.06,0-.34-.14-.44-.14-.32-.07-.48-.07a.87.87,0,0,1-.27,0l-.7.06-1,.1a1,1,0,0,0-.61,0l-.33,0a1,1,0,0,0-.51.09,4.54,4.54,0,0,1-.44.15l-.73,0a2.34,2.34,0,0,0-.55,0,1.77,1.77,0,0,1-.64,0c-.4-.06-.32.16-.44.15l-.61,0-.63.1c-.11,0-.85.12-.93.12l-1,.13a2.35,2.35,0,0,0-.7.21c-.08.08-.32,0-.4,0s-.23-.17-.23-.17-.21-.26-.14-.42,0-.24,0-.33.17-.28.21-.48a.39.39,0,0,1,.22-.2l.61,0s.24,0,.93,0l.4,0,.33-.15.74,0Zm6.39-6c.2,0,0,0,.16,0s.41.27.41.27.11.48,0,.61a.75.75,0,0,1-.61.53,5.34,5.34,0,0,1-.54,0c-.13,0-.21-.08-.4-.16a1.15,1.15,0,0,0-.61,0,3.87,3.87,0,0,1-.69.16h-.77c-.08,0-.16.08-.24.13a.2.2,0,0,1-.2,0h-.74c-.29,0-.29,0-.37,0s-.45.06-.53.09a4.27,4.27,0,0,1-.8,0,5.14,5.14,0,0,0-.68,0l-.29.27v.63a5.38,5.38,0,0,0,.13.64l.08.37.19.08s.41-.12.46-.2.27,0,.69,0l.58-.08.32,0,1.39-.16.45,0,.72-.19c.33-.09.37,0,.7-.06s.29,0,.48,0a1,1,0,0,1,.48,0,.9.9,0,0,1,.27,0l.6.3c.12.1.14.26,0,.66l-.34.27h-.35l-.46,0a2.12,2.12,0,0,0-.61.11c-.18,0-.4,0-.62,0s-1,.15-1,.15l-.66,0-.72.1c-.45.06-.85,0-.93.13s-.4.11-.4.11a3,3,0,0,1-.64,0c-.21,0-.43.28-.43.28a2.47,2.47,0,0,1-.64-.16c-.08,0-.64-.24-.77-.48s0-.16-.16-.45,0,0,0-.13a.59.59,0,0,1-.05-.22v-.48c0-.24,0-.16-.08-.28a1,1,0,0,0-.15-.35.37.37,0,0,1,0-.38c0-.16-.08-.19-.08-.27s-.1-.05-.18-.1-.13-.11-.29-.24a1.21,1.21,0,0,1-.29-.27.17.17,0,0,1,0-.21c0-.24.15-.66.42-.75a.62.62,0,0,1,.56.08l.13.19.29-.08a1.2,1.2,0,0,0,.43,0c.13,0,.25.05.53,0s.32-.08.4,0a2.22,2.22,0,0,0,.69-.13l.81,0a4.87,4.87,0,0,0,.69,0,2.84,2.84,0,0,1,.66,0c.12,0,0,0,.65-.05l.56-.24a.8.8,0,0,0,.37,0l.4,0h.48a1.26,1.26,0,0,1,.4.11A5.58,5.58,0,0,1,56.44,17.43Zm-5.75,8.05s.37,0,.77,0a2.83,2.83,0,0,0,.8-.16l.32,0,.29,0a5.52,5.52,0,0,0,.8,0h.78l.58-.23.35-.21h.53c.16,0,.21.05.48.21l.38.23.21.27a3.39,3.39,0,0,0,.05.53,4.48,4.48,0,0,0,.08.62c0,.16.16.35.19.48a.43.43,0,0,1,0,.35c0,.13-.11.66-.11.66s-.24.08-.91.24h-.21s-.35,0-.56,0,0,0-.13,0a4.66,4.66,0,0,0-.85,0c-.34.08-.05-.08-.5,0s-.48.08-.56,0-.36.16-.63.16-.63,0-.71,0a3.36,3.36,0,0,1-.45.05H50.1c-.27,0-.32.13-.32.13l-.07.08,0,.37a1.77,1.77,0,0,1,.25.3c0,.08.19.21.19.21l.13.05.43.14.61,0L52,30a3.69,3.69,0,0,1,.59-.05l.64,0a4.3,4.3,0,0,0,.69,0,2.4,2.4,0,0,0,.54-.17,3,3,0,0,1,.93.13c.08,0,.74-.13.74-.13a3.74,3.74,0,0,1,.5-.15,1,1,0,0,1,.49,0c.16,0,.43.25.51.25a.22.22,0,0,1,0,.34c-.13.11,0,.37,0,.48a.45.45,0,0,1-.29.24c-.08,0-.48.05-.61.05a2.16,2.16,0,0,0-.51.08l-.67,0c-.26,0-.87,0-.87,0H54.4A2.29,2.29,0,0,1,54,31a2.64,2.64,0,0,0-.44.16l-1-.05a1.51,1.51,0,0,0-.54.08c-.29.12-.21,0-.32,0l-1.06-.05-.43,0h-.34l-.46-.32H49.3a2.68,2.68,0,0,0-.23-.34,2.67,2.67,0,0,1-.19-.33,2.21,2.21,0,0,1-.21-.48,1.72,1.72,0,0,0-.14-.6c-.15-.2-.29-.14-.29-.14L48,28.62c-.08-.05-.17-.32-.17-.32-.15-.34.08-.43.17-.42s.42,0,.42,0l.77-.19a1.53,1.53,0,0,0,.61,0c.08-.1.48,0,.48,0l.48-.05a1.86,1.86,0,0,0,.68,0c.24-.05,0,0,.24-.13l1,0a2.56,2.56,0,0,1,.63,0c.16,0,.29-.05.48,0s1.48,0,1.48,0a1.07,1.07,0,0,0,.4-.08.26.26,0,0,0,.13-.21l0-.13s.08-.28,0-.4v-.25a.41.41,0,0,0-.29-.16h-.19s-1,.06-1.19.06a.61.61,0,0,0-.38.1l-.69,0h-.35a1.54,1.54,0,0,1-.45,0l-.3,0a2.33,2.33,0,0,1-.61.23c-.24.06-.56,0-.67.05s-.37,0-.45,0l-.24.07-.39,0-.72.1-.45,0-.54-.22-.08-.29s-.06-.29,0-.4a1,1,0,0,1,.49-.43c.19-.07.32.09.45.09a2.42,2.42,0,0,0,.67,0c.21,0,.9-.12.9-.12Z"/><path d="M57,32.89a3.6,3.6,0,0,0,.66.24c.62.18.57.9.62,1.38l0,.62c0,.53,0,.68,0,1.24-.1,1,.06,1,.06,1v1.12a3.9,3.9,0,0,1-.17.45,1.34,1.34,0,0,0,0,.71l.06,2.14a1.18,1.18,0,0,1,.25.71c0,.4-.17.4-.17.4v1l-.06,1v.42A5,5,0,0,1,58,46c-.07.24-.23.66-.32.69a4.1,4.1,0,0,1-.71.18,1.71,1.71,0,0,1-.51-.12c-.13,0-.13-.3-.13-.56a1.63,1.63,0,0,1,.11-.46,1.48,1.48,0,0,0,.1-.5,5.16,5.16,0,0,1,0-.92,1.44,1.44,0,0,0,.08-.49,1.22,1.22,0,0,0-.17-.59,1.89,1.89,0,0,0-.29,0,3.19,3.19,0,0,0-.61.08c-.3,0,0,0-.18,0h-.91s-1,.11-1.18.16l-1.81.09s-.47.16-1,.31-.55,0-.63,0c-.81.06-.94.37-1.61.29a.9.9,0,0,1-.6,0,.87.87,0,0,1-.86-.24c-.14-.23-.48-.27-.37-.77a1.28,1.28,0,0,1,.45-.58c.18-.14,0,0,.38,0h.79c.32-.09.56.05.83,0l.29-.1.45.1c.48,0,.54,0,.54,0a2.34,2.34,0,0,1,.63-.15c.22,0,1.31-.24,1.31-.24h1.54L54,42h.51s.82,0,.9-.13.26,0,.26,0h.8c.24,0,.27-.64.28-.81l0-1.49a1.07,1.07,0,0,0,0-.91.33.33,0,0,1,0-.29l-.06-1.83,0-.62v-.5a3.06,3.06,0,0,0,0-.86,1.07,1.07,0,0,1,0-.37,1.11,1.11,0,0,1-.28-.34c-.21-.17-.45-.36-.42-.54a.84.84,0,0,1,.16-.19c.08-.16.16-.26.62-.18Zm-4.9,1.49.53.18a2,2,0,0,1,.34.25l.28.1a4.88,4.88,0,0,0,.63.7s.16,0,.22.26l.18.37.14.29s-.08,0,0,.22a3.44,3.44,0,0,1,0,.58s0,.25,0,.43v.45l-.14.54a1.33,1.33,0,0,0-.34.45l-.14.34-.34.54a2.49,2.49,0,0,1-.29.29l-1.23.48h-.5a.86.86,0,0,1-.4,0c-.68-.11-1.18.17-1.61-.29l-.18-.1c-.74-.33-.59-.41-.59-.41l-.4-.4a1,1,0,0,1-.21-.4L47.89,39a.55.55,0,0,1,0-.29v-.4s0-.51,0-.69v-.75l.14-.24.15-.4a.88.88,0,0,1,0-.27l.07-.24a4.33,4.33,0,0,0,.38-.29,1.41,1.41,0,0,1,.19-.34,3.21,3.21,0,0,1,1.86-.64A3.18,3.18,0,0,1,52.08,34.38Zm-2.37,2-.17.23a2,2,0,0,0-.18.28l-.16.44a1.07,1.07,0,0,0,0,.49.63.63,0,0,0-.05.23v.24a1,1,0,0,1,.24.4l.12.25a.35.35,0,0,0,.2.21l.15.16h.38a.62.62,0,0,0,.34.18,3.14,3.14,0,0,1,.54,0,2.87,2.87,0,0,0,.51,0s.24.13.31,0l.11-.08a1.74,1.74,0,0,1,.27-.18c.11-.08-.08.08.11-.08a1.29,1.29,0,0,0,.26-.37l.22-.54V37.9l.2-.27v-.86l-.2-.26a.56.56,0,0,0-.17-.34l-.27-.24a2.29,2.29,0,0,0-.79-.25H51A2.43,2.43,0,0,0,50,36,2.92,2.92,0,0,0,49.71,36.38Z"/></g></g></svg>