<svg width="243" height="95" viewBox="0 0 243 95" fill="none" xmlns="http://www.w3.org/2000/svg">
<line x1="24.0905" y1="3.99963" x2="31.9275" y2="29.078" stroke="current" stroke-width="6.09452" stroke-linecap="round"/>
<line x1="45.3349" y1="3.99963" x2="53.1719" y2="29.078" stroke="current" stroke-width="6.09452" stroke-linecap="round"/>
<path d="M212.522 17.49C198.243 16.9011 185.267 22.5202 176.075 31.8661C172.687 35.3129 167.193 35.3515 163.804 31.8951C155.047 22.9836 142.863 17.4514 129.375 17.4514C115.887 17.4514 103.703 22.9836 94.9459 31.9047C91.557 35.3611 86.0731 35.3225 82.6746 31.8758C73.4832 22.5299 60.5071 16.9011 46.2276 17.4997C20.6133 18.5521 0.0774994 39.9375 0.000260698 65.5711C-0.0866328 92.3054 21.5595 114 48.2744 114C61.7622 114 73.9563 108.468 82.7036 99.5465C86.0828 96.1094 91.5571 96.1094 94.9362 99.5465C103.693 108.468 115.887 114 129.375 114C142.863 114 155.057 108.468 163.804 99.5465C167.183 96.1094 172.658 96.1094 176.037 99.5465C184.794 108.468 196.988 114 210.476 114C237.191 114 258.837 92.3054 258.75 65.5711C258.673 39.9375 238.137 18.5521 212.522 17.49Z" fill="current"/>
</svg>
