<svg width="86" height="39" viewBox="0 0 86 39" fill="none" xmlns="http://www.w3.org/2000/svg">
<line x1="8.74848" y1="2.05293" x2="11.0003" y2="9.25869" stroke="#00397C" stroke-width="3.20895" stroke-linecap="round"/>
<line x1="15.808" y1="2.05293" x2="18.0598" y2="9.25869" stroke="#00397C" stroke-width="3.20895" stroke-linecap="round"/>
<path d="M70.6355 6.14842C65.8894 5.95267 61.5766 7.82028 58.5217 10.9265C57.3953 12.0721 55.5695 12.085 54.4431 10.9362C51.5326 7.97431 47.4829 6.13558 43 6.13558C38.5171 6.13558 34.4674 7.97431 31.5569 10.9394C30.4305 12.0882 28.6079 12.0753 27.4783 10.9297C24.4234 7.82349 20.1106 5.95267 15.3645 6.15163C6.85119 6.5014 0.0257582 13.6092 8.66474e-05 22.129C-0.0287939 31.0146 7.16567 38.2251 16.0448 38.2251C20.5277 38.2251 24.5806 36.3863 27.4879 33.4213C28.6111 32.2789 30.4305 32.2789 31.5537 33.4213C34.4642 36.3863 38.5171 38.2251 43 38.2251C47.4829 38.2251 51.5358 36.3863 54.4431 33.4213C55.5662 32.2789 57.3857 32.2789 58.5088 33.4213C61.4194 36.3863 65.4723 38.2251 69.9552 38.2251C78.8343 38.2251 86.0288 31.0146 85.9999 22.129C85.9742 13.6092 79.1488 6.5014 70.6355 6.14842Z" fill="#00397C"/>
<path d="M12.726 25.71H17.5394" stroke="white" stroke-width="1.28358" stroke-miterlimit="10" stroke-linecap="round"/>
<path d="M8.22382 20.9257L10.6947 20.255" stroke="white" stroke-width="1.28358" stroke-miterlimit="10" stroke-linecap="round"/>
<path d="M22.0416 20.9258L19.5707 20.2551" stroke="white" stroke-width="1.28358" stroke-miterlimit="10" stroke-linecap="round"/>
</svg>
